<svg width="64" height="64" viewBox="0 0 64 64" fill="none" xmlns="http://www.w3.org/2000/svg">
  <path d="M27.8 6h8.4l1.5 6.2c1.5.4 2.9 1 4.2 1.8l5.5-3 5.9 5.9-3 5.5c.8 1.3 1.4 2.7 1.8 4.2L58 28v8.4l-6.2 1.5c-.4 1.5-1 2.9-1.8 4.2l3 5.5-5.9 5.9-5.5-3c-1.3.8-2.7 1.4-4.2 1.8L36.2 58h-8.4l-1.5-6.2c-1.5-.4-2.9-1-4.2-1.8l-5.5 3-5.9-5.9 3-5.5c-.8-1.3-1.4-2.7-1.8-4.2L6 36.2v-8.4l6.2-1.5c.4-1.5 1-2.9 1.8-4.2l-3-5.5 5.9-5.9 5.5 3c1.3-.8 2.7-1.4 4.2-1.8L27.8 6Z" stroke="#B0B0B0" stroke-width="4" stroke-linejoin="round"/>
  <circle cx="32" cy="32" r="9" stroke="#B0B0B0" stroke-width="4"/>
</svg>
